<svg xmlns="http://www.w3.org/2000/svg" xmlns:xlink="http://www.w3.org/1999/xlink" preserveAspectRatio="xMidYMid" width="18" height="13" viewBox="0 0 18 13">
  <defs>
    <style>
      .cls-1 {
        fill: #000;
        fill-rule: evenodd;
      }
    </style>
  </defs>
  <path d="M16.000,6.000 L16.000,9.000 L16.000,10.000 L16.000,11.000 L16.000,13.000 L2.000,13.000 L2.000,11.000 L2.000,10.000 L2.000,9.000 L2.000,6.000 L-0.000,6.000 L-0.000,4.000 L4.000,4.000 L4.000,2.000 L6.000,2.000 L6.000,4.000 L12.000,4.000 L12.000,2.000 L14.000,2.000 L14.000,4.000 L18.000,4.000 L18.000,6.000 L16.000,6.000 ZM5.000,10.000 L4.000,10.000 L4.000,11.000 L5.000,11.000 L5.000,10.000 ZM8.000,10.000 L7.000,10.000 L7.000,11.000 L8.000,11.000 L8.000,10.000 ZM11.000,10.000 L10.000,10.000 L10.000,11.000 L11.000,11.000 L11.000,10.000 ZM14.000,10.000 L13.000,10.000 L13.000,11.000 L14.000,11.000 L14.000,10.000 ZM6.000,-0.000 L12.000,-0.000 L12.000,2.000 L6.000,2.000 L6.000,-0.000 Z" class="cls-1"/>
</svg>
