<?xml version="1.0" encoding="utf-8"?>
<!-- Generator: Adobe Illustrator 17.1.0, SVG Export Plug-In . SVG Version: 6.00 Build 0)  -->
<!DOCTYPE svg PUBLIC "-//W3C//DTD SVG 1.1//EN" "http://www.w3.org/Graphics/SVG/1.1/DTD/svg11.dtd">
<svg version="1.1" id="Layer_1" xmlns="http://www.w3.org/2000/svg" xmlns:xlink="http://www.w3.org/1999/xlink" x="0px" y="0px"
	 viewBox="0 0 112 32.6" enable-background="new 0 0 112 32.6" xml:space="preserve">
<g>
	<path fill="#E00076" d="M111.9,18.5c-0.2,0.4-0.6,0.5-1,0.4c-0.7-0.1-1.2-0.4-1.7-0.9c-0.8-0.9-1.5-1.9-2.2-2.9
		c-0.4-0.7-0.8-1.5-1.1-2.3c-0.1-0.2-0.2-0.4-0.3-0.6c-0.2-0.2-0.5-0.2-0.7,0c-0.3,0.2-0.4,0.6-0.5,0.9c-0.2,0.5-0.4,1-0.7,1.6
		c-0.1,0.3-0.1,0.5-0.1,0.8c-0.1,0.9,0,1.7-0.4,2.5c-0.1,0.3-0.2,0.5-0.4,0.7c-0.2,0.3-0.7,0.3-1,0c-0.3-0.3-0.4-0.7-0.4-1.1
		c-0.1-1.8,0-3.6,0.8-5.3c0.5-1.1,1.2-2,2.3-2.5c0.9-0.4,1.8-0.2,2.3,0.6c0.9,1.3,1.9,2.5,2.7,3.9c0.4,0.6,0.7,1.2,0.8,1.9
		c0,0.3,0.2,0.6,0.5,0.8C111.2,17.6,111.5,18.1,111.9,18.5C111.9,18.5,111.9,18.5,111.9,18.5z"/>
	<path fill="#E00076" d="M64,32.6c-0.4-0.3-0.6-0.8-0.7-1.3c-0.2-0.7-0.2-1.5-0.2-2.3c0-0.2,0-0.5-0.2-0.7c-0.3-0.4-0.2-0.9-0.1-1.3
		c0.1-0.2,0.3-0.4,0.3-0.7c0-0.1,0.1-0.1,0.2-0.1c0.5,0,0.9,0.2,1,0.8c0.3,1.2,0.7,2.4,0.6,3.7c0,0.5-0.1,1-0.3,1.4
		C64.7,32.5,64.4,32.5,64,32.6C64.1,32.6,64,32.6,64,32.6z"/>
	<path fill="#E00076" d="M98.8,22c-0.1,0.1-0.3,0.2-0.1,0.4c0,0,0.1,0.1,0,0.1c0,0.1-0.1,0.1-0.2,0.1c-0.7-0.2-1.4,0.1-2,0.4
		c-0.3,0.1-0.6,0.2-0.9,0.2c-0.2,0-0.4,0.1-0.5,0.2C95,23.6,95,23.8,95.1,24c0.2,0.2,0.2,0.5,0,0.7c-0.5,0.7-0.6,1.6-0.7,2.5
		c0,0.2,0,0.5-0.2,0.5c-0.3,0.1-0.3-0.2-0.4-0.4c-0.2-0.2-0.1-0.5-0.2-0.7c-0.1-0.6-0.3-1.3-0.3-1.9c0-0.3-0.1-0.5-0.1-0.8
		c0.1-0.8-0.6-1.1-1.3-1c-0.7,0.1-1.3,0.2-2,0.1c-0.5-0.1-0.8-0.5-0.6-1c0.1-0.4,0.4-0.5,0.8-0.6c0.5-0.1,1,0,1.5-0.1
		c0.4,0,0.9-0.1,1.3-0.3c0.3-0.1,0.4-0.2,0.3-0.5c-0.1-0.5-0.1-1.1-0.1-1.6c0-0.3-0.1-0.4-0.4-0.5c-1.2-0.3-2.1-0.9-2.8-1.9
		c-0.2-0.3-0.4-0.5-0.6-0.8c-0.7-1.2-0.5-2.4,0.1-3.6c0.6-1.2,1.6-2.1,2.8-2.9c0.8-0.6,1.8-0.6,2.7-0.5c0.6,0,1.2,0.1,1.8,0.4
		c0.3,0.1,0.5,0.3,0.8,0.5c0.3,0.3,0.5,0.3,0.8,0.1c0.2-0.1,0.2,0,0.3,0.1c0.4,0.7,0.9,1.3,1.2,2c0.1,0.2,0.1,0.3,0.2,0.5
		c0.1,0.1,0.1,0.2,0.1,0.4c0,0.1,0,0.2,0,0.3c0,0,0,0.1,0,0.2c-0.3,0.2-0.1,0.4,0.1,0.6c0.2,0.3,0.2,0.8-0.1,1.1
		c-0.2,0.2-0.4,0.5-0.4,0.8c0,0.4-0.4,0.6-0.8,0.6c-0.1,0-0.2,0-0.2,0.1c-0.2,0.4-0.5,0.8-1,0.9c-0.1,0-0.1,0.1-0.2,0.2
		c-0.2,0.2-0.4,0.4-0.7,0.4c-0.2,0-0.3,0-0.5,0.1c-0.3,0.2-0.6,0.3-0.9,0.3c-0.4,0-0.5,0.1-0.4,0.5c0.1,0.4,0.1,0.8,0.2,1.1
		c0.1,0.6,0.6,1,1.2,1c0.3,0,0.6,0.2,0.9,0.2c0.1,0,0.2,0.1,0.1,0.2c-0.1,0.1,0,0.2,0.1,0.2c0.2,0.1,0.4,0.2,0.6,0.2
		C98.5,22,98.6,22,98.8,22z M94.6,16.3c0.3,0,0.6,0,0.9-0.1c1.3-0.3,2.1-1.3,2.6-2.5c0.2-0.5,0.2-1-0.3-1.4
		c-0.1-0.1-0.2-0.2-0.2-0.3c-0.5-0.8-1.2-1-2.1-1.1c-0.5-0.1-0.9,0.2-1.1,0.7c0,0.1-0.1,0.2-0.2,0.2c-1.3,0.7-1.7,2.4-1,3.5
		C93.5,15.9,93.9,16.4,94.6,16.3z"/>
	<path fill="#E00076" d="M81.1,18.1c0.1-0.2,0.2-0.3,0.3-0.3c0.6-0.5,1.2-0.9,1.8-1.4c0.1-0.1,0.3-0.2,0.4-0.4c0-0.1,0.1-0.2,0-0.2
		c-0.1-0.1-0.1,0-0.2,0c-0.4,0.1-0.7,0.3-1,0.5c-0.7,0.4-1.3,0.9-2,1.2c-0.6,0.3-1.3,0.5-2,0.1c-0.3-0.2-0.4-0.4-0.3-0.8
		c0.1-0.2,0-0.4-0.1-0.6c-0.4-1-0.4-2-0.4-3.1c0.1-1.6,0.4-3.1,0.7-4.6c0.3-1.6,0.6-3.2,0.6-4.8c0-0.6-0.1-1.2-0.3-1.8
		c-0.3-0.6,0-1.1,0.6-1.3c0.2-0.1,0.3-0.2,0.5-0.2c0.3-0.1,0.3,0,0.3,0.2c0,0.1,0,0.2,0.1,0.2c0.3,0.2,0.4,0.4,0.2,0.7
		c-0.1,0.2-0.1,0.3,0,0.4c0.1,0.1,0.1,0.2,0.1,0.3c-0.1,0.9,0.2,1.7,0.3,2.5c0.1,1,0.1,2,0.1,3.1c0,0.1,0,0.2,0,0.2
		c0,0.3,0.1,0.4,0.4,0.3c0.7-0.2,1.4-0.4,2-0.5c1-0.2,2-0.1,2.9,0.4c1,0.5,1.5,1.3,1.8,2.3c0.2,0.7,0.4,1.4,0.3,2.1
		c-0.1,0.8-0.6,1.4-1.3,1.9c-1.6,1.1-3.2,2.2-4.8,3.3C81.9,17.9,81.5,18,81.1,18.1z M85.2,11.2c0-0.7-0.5-1.2-1.3-1.1
		c-0.9,0.1-1.8,0.3-2.7,0.4c-0.2,0-0.4,0-0.6,0.1c-0.2,0.1-0.1,0.4-0.1,0.6c0,0,0,0,0,0c-0.3,1.3-0.5,2.7-1.1,3.9
		c0,0.1-0.1,0.2,0.1,0.2c0.3,0,0.2,0.2,0.1,0.4c-0.1,0.2-0.2,0.4-0.2,0.7c0,0.2,0.1,0.3,0.3,0.2c0.4-0.4,1-0.6,1.4-0.9
		c1.1-0.8,2.3-1.7,3.2-2.7C84.7,12.5,85.2,12,85.2,11.2z M79.3,16.1c0-0.1,0-0.2-0.2-0.2c-0.1,0-0.1,0.1-0.1,0.1
		c0,0.1,0.1,0.2,0.2,0.2C79.2,16.2,79.3,16.1,79.3,16.1z"/>
	<path fill="#E00076" d="M30.4,5.1c0,1,0,1.7-0.3,2.5c-0.3,0.9-0.4,1.8-0.5,2.7c-0.1,0.4-0.1,0.8-0.2,1.3c0,0.2,0,0.3,0,0.5
		c0,0.1,0.1,0.3,0.2,0.3c0.1,0,0.3,0,0.4-0.1c0.6-0.6,1.3-1.3,2-1.8c0.8-0.6,1.5-1.2,2.2-1.9c0,0,0.1-0.1,0.1-0.1
		c0.5,0,0.8-0.4,1.2-0.7c0.2-0.2,0.5-0.2,0.7-0.1c0.2,0,0.3,0.2,0.2,0.5c-0.1,0.3-0.3,0.5-0.5,0.7c-0.5,0.5-1,1-1.4,1.5
		c-0.4,0.5-0.8,0.9-1.3,1.3c-0.6,0.3-1.1,0.7-1.7,1c-0.2,0.1-0.3,0.2-0.5,0.3c-0.5,0.3-0.5,0.5-0.1,0.9c0.5,0.8,1.2,1.3,2,1.7
		c1.3,0.7,2.6,1.1,4,1.4c0.8,0.2,1.6,0.2,2.4,0.6c0.1,0,0.2,0.1,0.3,0.2c0.1,0.1,0.1,0.1,0.1,0.2c0,0.2-0.3,0.5-0.4,0.5
		c-1.7,0-3.4-0.1-5.1-0.4c-1.3-0.3-2.4-0.7-3.4-1.5c-0.4-0.3-0.8-0.7-1.1-1.3c-0.1-0.1-0.1-0.2-0.2-0.4c-0.1-0.1-0.2-0.3-0.4-0.1
		c-0.1,0.1-0.3,0.3-0.1,0.5c0.3,0.2,0.1,0.5,0.1,0.8c0,0.3,0,0.6-0.3,0.7c-0.1,0-0.1,0.1-0.1,0.2c0,0.9-0.4,1.6-0.8,2.4
		c-0.3,0.6-0.9,0.4-1.1,0c-0.2-0.3-0.3-0.7-0.2-1.1c0.1-1.2,0.2-2.4,0.3-3.7c0.1-0.5,0.1-1.1,0.5-1.6c0.2-0.2,0.1-0.5,0.1-0.7
		c0.1-0.9,0.1-1.8,0-2.7c0-0.3,0-0.6,0.1-0.9c0.1-1.1-0.1-2.3-0.3-3.4c-0.1-0.5-0.2-0.9-0.3-1.4c0-0.3-0.1-0.5-0.3-0.8
		c-0.1-0.2-0.2-0.4-0.2-0.7c0-0.2,0-0.5-0.1-0.7c-0.1-0.2,0-0.4,0.1-0.6c0.2-0.3,0.4-0.6,0.7-0.9c0.5-0.4,1.3-0.3,1.8,0.2
		c0.5,0.5,0.8,1.2,1,1.9C30.3,3.4,30.4,4.3,30.4,5.1z"/>
	<path fill="#E00076" d="M1.8,25.7c0.1-1.3,0.1-2.8,0.2-4.3c0.3-2.4,0.1-4.9,0.2-7.3c0,0,0,0,0,0c0-0.2,0-0.5-0.3-0.5
		c-0.2,0-0.4,0.2-0.5,0.3c-0.1,0.3-0.3,0.7-0.4,1.1C1,15.3,0.8,15.3,0.5,15c-0.8-0.7-0.6-1.7-0.2-2.3c0.4-0.6,0.9-1.2,1.5-1.7
		c0.6-0.5,1.4-0.8,2.1-1c1.5-0.5,2.9-0.4,4.3,0.3c1.8,0.9,2.9,2.4,3,4.5c0,1-0.4,1.9-1.2,2.5c-0.7,0.5-1.4,1.1-2.2,1.7
		c-0.2,0.2-0.4,0.4-0.7,0.5c-0.1,0-0.2,0.1-0.3,0c-0.1-0.1,0-0.2,0-0.3c0.2-0.3,0.4-0.5,0.7-0.7c0.8-0.8,1.6-1.7,2-2.8
		c0.2-0.8,0-1.5-0.4-2.1c-0.7-1.1-1.7-1.9-3.1-2c-0.9,0-1.7,0.3-2.4,0.9c-0.1,0.1-0.1,0.2,0,0.3c0.4,0.7,0.7,1.4,1,2.1
		c0.1,0.3,0.2,0.7,0.3,1c0,0.2,0.1,0.4,0.2,0.5c0.3,0.4,0.3,0.8,0.3,1.3c0.1,0.9,0.1,1.8,0,2.7c0,0.5,0,1-0.4,1.4
		c-0.1,0.1-0.2,0.3-0.2,0.5c0,0.3,0,0.6-0.2,0.8c0,0,0,0.1,0,0.1c0.1,0.6-0.1,1.1-0.1,1.6c0,0.1,0,0.1,0,0.2
		c-0.2,0.4-0.2,0.7-0.2,1.1c0,0,0,0.1-0.1,0.1c-0.3,0.1-0.2,0.3-0.1,0.5c0.1,0.3,0,0.5-0.2,0.7c-0.3,0.3-0.3,0.6-0.5,1
		c-0.1,0.1-0.1,0.2-0.3,0.2c-0.8,0-0.9,0-1.1-0.8C1.7,27.3,1.8,26.6,1.8,25.7z"/>
	<path fill="#E00076" d="M69.8,7.8c0.7,0,1.6,0,2.4,0.3c0.9,0.3,1.5,1,1.8,1.8c0.5,1.1,0.3,2.2-0.3,3.2c-0.4,0.8-1,1.6-1.6,2.3
		c-0.6,0.7-1.3,1.3-2.1,1.7c-0.9,0.5-1.8,1.1-2.8,1.5c-0.2,0.1-0.5,0.2-0.7,0.3c-0.4,0.1-0.7-0.1-0.6-0.6c0.1-0.4,0-0.9-0.1-1.3
		c-0.3-1.6-0.3-3.2-0.1-4.8c0.2-1.5,0.2-3,0.3-4.6c0-0.8,0.2-1.6,0.2-2.4c0-1.3-0.1-2.5-0.3-3.8c0-0.5,0.1-0.6,0.5-0.7
		c0.1,0,0.3,0,0.4,0c0.4,0,0.4,0.1,0.5,0.5c0.1,0.7,0.3,1.4,0.4,2.1c0.2,1.3,0.5,2.5,0.6,3.8c0,0.5,0.2,0.7,0.7,0.7
		C69.2,7.8,69.5,7.8,69.8,7.8z M68.2,10.8c0,0.8-0.1,1.6-0.2,2.4c-0.2,1-0.2,1.9-0.5,2.9c0,0.1-0.1,0.3,0,0.4c0.1,0.1,0.3,0,0.4,0
		c0.7-0.4,1.5-0.8,2.2-1.3c1.3-1,1.7-2.3,1.8-3.8c0-0.9-0.6-1.5-1.5-1.6c-0.4,0-0.8,0-1.3-0.1c-0.7-0.1-0.9,0.3-0.9,0.9
		C68.1,10.7,68.2,10.7,68.2,10.8z"/>
	<path fill="#E00076" d="M23.7,17.2c0-1.5-0.1-3-0.7-4.4c-0.3-0.7-0.8-1.3-1.5-1.6c-0.8-0.4-1.5-0.2-2.1,0.3
		c-0.2,0.2-0.4,0.3-0.6,0.4c-0.2,0.1-0.2,0.3-0.1,0.4c0.2,0.4,0.3,0.9,0.4,1.3c0.2,0.9,0.2,1.7,0,2.6c-0.1,0.5-0.4,0.9-0.5,1.4
		c-0.1,0.3-0.2,0.5-0.2,0.8c0,0.2-0.1,0.4-0.3,0.5c-0.5,0.3-0.5,0.3-0.4,0.9c0,0.1,0,0.2,0,0.2c-0.1,0.1-0.1,0-0.2,0
		c-0.5-0.2-0.7-0.6-0.8-1.1c-0.4-0.9-0.3-1.9-0.3-2.9c0,0,0,0,0-0.1c0.3-0.5,0.1-0.9-0.1-1.3c-0.1-0.4-0.2-0.8-0.3-1.2
		c-0.2-1.1,0.3-2,1.1-2.7c0.5-0.4,1-0.8,1.6-1.1c0.8-0.4,1.7-0.6,2.7-0.4c0.8,0.2,1.5,0.7,2,1.3c0.4,0.5,0.5,1,0.7,1.5
		c0.2,0.5,0.4,1,0.5,1.5c0.1,0.7,0.2,1.3,0.1,2c0,0.4,0,0.7-0.1,1.1c-0.1,0.6-0.3,1.2-0.5,1.8c0,0.1-0.1,0.3-0.3,0.3
		c-0.2,0-0.2-0.2-0.2-0.3C23.7,18.1,23.7,17.7,23.7,17.2z"/>
	<path fill="#E00076" d="M41.6,31.2c-0.2,0-0.4,0-0.6-0.2c-0.5-0.3-1.1-0.5-1.5-0.8c-0.5-0.3-1-0.7-1.2-1.3
		c-0.2-0.4-0.1-0.8,0.2-1.1c0.1-0.1,0.2-0.2,0.2-0.4c0.1-0.7,0.6-1.1,1.2-1.4c0.6-0.3,1.2-0.4,1.9-0.6c0.1,0,0.2,0,0.3,0.1
		c0.1,0.2,0.3,0.3,0.5,0.4c0.2,0.1,0.4,0.1,0.6-0.1c0.2-0.2,0.2-0.3,0.1-0.5c-0.3-0.7-0.6-1.4-0.9-2.1c-0.3-0.5-0.2-1.1,0.1-1.6
		c0.3-0.4,0.7-0.5,1.1-0.3c0.6,0.2,0.9,0.7,1.2,1.3c0.1,0.3,0.2,0.6,0.2,0.9c0,0.2,0,0.4,0.2,0.5c0.1,0.1,0.1,0.3,0.1,0.4
		c-0.1,0.5,0.1,0.9,0.1,1.4c0,0.5,0,0.9-0.3,1.3c0,0.1-0.1,0.2-0.1,0.2c-0.1,0.9-0.4,1.7-0.7,2.5c-0.2,0.5-0.6,0.6-1,0.8
		c-0.4,0.1-0.8,0.2-1,0.5C42,31.2,41.8,31.2,41.6,31.2z M42.9,30.4c0.5,0,0.8-0.3,0.7-0.8c0-0.1,0-0.2,0-0.3c0-0.6-0.1-1.1-0.2-1.7
		c0-0.3-0.2-0.4-0.4-0.5c-0.3-0.1-0.5,0-0.7,0.1c-0.8,0.3-1.4,0.8-1.8,1.6c-0.2,0.4-0.1,0.7,0.4,0.9c0.5,0.2,1.1,0.4,1.6,0.6
		C42.6,30.3,42.7,30.4,42.9,30.4z"/>
	<path fill="#E00076" d="M57.9,9.2c-0.5-0.2-0.9-0.4-1.4-0.4c-1-0.1-2,0.2-2.9,0.6c-0.9,0.5-1.6,1.2-2.2,2c-0.1,0.1-0.1,0.2-0.1,0.3
		c-0.2,1.5-0.4,3-0.2,4.5c0.1,0.5,0,1-0.2,1.4c0,0.1-0.1,0.1,0,0.2c0.1,0.4,0,0.7-0.1,1.1c-0.1,0.3-0.4,0.5-0.6,0.5
		c-0.3,0-0.5-0.2-0.6-0.5c-0.4-1.7-0.7-3.3-0.7-5c0-0.9,0-1.8,0.3-2.6c0.2-0.5,0.5-0.9,0.8-1.2c0.5-0.6,1.1-1.2,1.8-1.6
		c0.6-0.3,1.1-0.6,1.8-0.8c0.7-0.2,1.5-0.3,2.2-0.2c0.3,0,0.6,0.2,0.8,0.4C57,8.1,57.5,8.6,57.9,9.2z"/>
	<path fill="#E00076" d="M58.9,14.7c0-1.3,0.2-2.5,0.5-3.8c0.1-0.8,0.2-1.5,0.2-2.3c-0.1-0.5,0-1.1,0.3-1.6c0.2-0.4,0.8-0.4,1,0
		C60.9,7.1,61,7.2,61,7.4c0.1,0.5,0.3,1.1,0.2,1.6c-0.1,0.7,0.1,1.2,0.5,1.7c0.6,0.8,0.7,1.8,0.4,2.7c-0.2,0.5-0.1,1.1-0.2,1.6
		c-0.1,0.3,0,0.7-0.3,1c0,0,0,0,0,0c0.1,0.6-0.4,1.1-0.5,1.7c0,0.1,0,0.3,0,0.4c0,0.3,0,0.3-0.3,0.3c-0.3-0.1-0.3-0.1-0.3,0.2
		c0,0.2,0.2,0.4-0.1,0.6c-0.2,0.1-0.7,0-0.8-0.2c-0.3-0.4-0.4-0.8-0.5-1.3C58.9,16.8,58.9,15.7,58.9,14.7z"/>
	<path fill="#E00076" d="M73.1,27.2c-0.1,0.3,0,0.5,0.2,0.6c0.2,0.1,0.2,0.3,0,0.5c-0.3,0.5-0.7,0.9-0.6,1.6c0,0.2,0.1,0.3,0.2,0.5
		c0.1,0.2,0.1,0.3,0,0.5c-0.4,0.5-0.9,1-1.6,1.1c-0.3,0.1-0.7,0.2-1,0.3c-0.2,0.1-0.5,0-0.6-0.2C69.7,32,69.5,32,69.4,32
		c-0.4,0-0.8-0.2-1.1-0.5c-0.1-0.1-0.2-0.2-0.4-0.3c-1-0.6-1.1-1.4-0.9-2.4c0.1-0.4,0.2-0.8,0.4-1.2c0.1-0.1,0.1-0.3,0.1-0.4
		c0-0.4,0.1-0.8,0.5-0.9c1.2-0.5,2.4-0.8,3.7-0.6c0.7,0.1,1.1,0.5,1.4,1C73.1,26.8,73,27,73.1,27.2z M72.6,28.8
		c0-0.7-0.6-1.5-1.3-1.7c-0.1,0-0.2,0-0.2,0.1c0,0.1,0,0.2,0,0.2c0,0.4-0.1,0.5-0.5,0.4c-0.1,0-0.2-0.1-0.4,0
		c-0.2,0.2-0.5,0.3-0.7,0.4c-0.7,0.4-0.7,1.6-0.1,2c0.7,0.4,1.3,0.5,2,0.1C72.2,30,72.6,29.5,72.6,28.8z"/>
	<path fill="#E00076" d="M58,31.7c-0.2,0.1-0.3,0.1-0.4,0c-0.7-0.2-1.3-0.5-1.9-1c-0.6-0.5-1-1.3-1.2-2.1C54.5,28.3,54.4,28,54,28
		c-0.3,0-0.4-0.2-0.3-0.5c0.1-0.3,0.2-0.5,0.5-0.7c0.2-0.2,0.2-0.3,0.2-0.6c-0.1-0.6-0.1-1.3,0-1.9c0.1-0.6,0.5-1.1,1.1-1.1
		c0.2,0,0.4,0.1,0.5,0.3c0.4,0.4,0.6,0.9,0.8,1.4c0,0.1,0,0.2,0,0.3c-0.2,0.5,0,0.9,0.5,1c0.5,0.2,1,0.1,1.6,0.2
		c0.7,0,1.2,0.3,1.7,0.8c0.3,0.4,0.2,0.7-0.3,0.8c-0.6,0.2-1.2,0.2-1.9,0.1c-0.2,0-0.4,0-0.7,0c-0.6,0.1-0.8,0.4-0.8,1.1
		c0,0.7,0.4,1.3,0.7,1.9C57.7,31.3,57.9,31.5,58,31.7z"/>
	<path fill="#E00076" d="M50.6,30.6c-0.9,0.3-1.8,0.7-2.9,0.6c-1.4-0.2-2.1-1.2-1.9-2.5c0.1-1,0.6-1.8,1.3-2.5
		c0.1-0.1,0.2-0.2,0.3-0.3c0.4-0.5,1.1-0.4,1.5-0.2c0.3,0.2,0.5,0.3,0.8,0c0.3-0.2,0.7-0.1,1.1,0.2c0.2,0.2,0.4,0.4,0.6,0.6
		c0.3,0.5,0.7,1,1,1.5c0.3,0.4,0.4,0.9,0.2,1.4c-0.1,0.2,0.1,0.4,0.1,0.6c0.1,0.2,0.2,0.5,0.2,0.8c0,0.1,0,0.2-0.1,0.3
		c-0.1,0.1-0.2,0-0.3-0.1c-0.4-0.2-0.6-0.5-0.9-0.8c-0.6-0.8-1-1.8-1.4-2.7c-0.1-0.2-0.3-0.4-0.5-0.3c-0.8,0.2-1.4,0.6-1.9,1.4
		c-0.3,0.5-0.1,1,0.3,1.3C48.8,30.5,49.5,30.7,50.6,30.6z"/>
	<path fill="#E00076" d="M21.1,26.9C21.1,26.9,21.1,26.9,21.1,26.9c-0.2,0-0.4-0.2-0.5,0c-0.1,0.2,0.1,0.3,0.2,0.4
		c0.1,0.1,0.2,0.2,0.2,0.2c0.1,0.2,0.3,0.3,0.5,0.2c0.3-0.1,0.5,0,0.6,0.3c0.1,0.3,0.4,0.7,0.4,1.1c0,0.2,0,0.3-0.2,0.4
		c-0.2,0.1-0.3,0.3-0.4,0.5c-0.4,0.8-1.1,1.3-2,1.5c-1.4,0.4-2.5-0.1-3.5-1.1c-0.5-0.6-0.7-1.2-0.6-2c0.1-0.6,0.6-1,1.1-1.4
		c0.6-0.4,1.4-0.7,2.1-0.8c0.2,0,0.3,0,0.4,0.1c0.1,0,0.2,0.1,0.2,0.1C20.3,26.3,20.8,26.5,21.1,26.9z M19.9,30
		c0.2,0,0.4-0.1,0.7-0.1c0.4-0.1,0.6-0.3,0.6-0.8c0-0.1,0-0.2-0.1-0.4c-0.1-0.4-0.2-0.8-0.3-1.2c-0.1-0.6-0.5-0.9-1.1-0.5
		c-0.4,0.3-0.8,0.6-1.1,1c-0.4,0.5-0.4,0.7,0.1,1.2c0,0,0,0,0,0C18.8,29.9,19.3,30,19.9,30z"/>
	<path fill="#E00076" d="M80,31.1c-0.2-0.1-0.3-0.2-0.4-0.3c-0.4-0.5-0.8-1.1-1.1-1.7c-0.3-0.6-0.6-1.1-1.1-1.5
		c-0.3-0.2-0.6-0.5-1.1-0.3c-0.4,0.2-0.6,0.6-0.6,1c-0.1,0.4,0,0.8,0,1.2c0.1,0.4,0,0.9-0.2,1.3c-0.1,0.2-0.2,0.3-0.4,0.3
		c-0.2,0-0.3-0.2-0.3-0.4c-0.1-0.3-0.1-0.5,0-0.8c0.1-0.8,0.1-1.6,0.2-2.4c0.1-1.3,1.1-2.6,2.3-3c0.5-0.2,1-0.1,1.4,0.4
		c0.3,0.4,0.6,0.7,0.9,1.1c0.4,0.6,0.6,1.3,0.4,2.1C80,28.4,80,28.7,80.2,29c0.1,0.3,0,0.6,0.1,0.9c0,0.2,0,0.4,0.1,0.6
		c0,0.1,0.1,0.2,0,0.2C80,30.6,80.1,30.9,80,31.1C80.1,31.1,80,31.1,80,31.1z"/>
	<path fill="#E00076" d="M26.4,31.9c-0.4,0-0.9-0.1-1.4-0.3c-0.8-0.4-1.3-1-1.4-1.8c-0.1-0.7-0.2-1.4-0.1-2.1c0.1-0.4,0.3-0.8,0.7-1
		c0.4-0.2,0.8-0.1,1,0.3c0.3,0.5,0.4,1,0.5,1.5c0,0.4,0.1,0.9,0.3,1.2c0.3,0.7,1,0.8,1.7,0.7c0.8,0,1.3-0.6,1.7-1.3
		c0.1-0.2,0.2-0.4,0.3-0.7c0-0.1,0.1-0.2,0.2-0.2c0.1,0,0.1,0.1,0.1,0.2c0,0.2,0,0.4,0.1,0.7c0,0.1,0.1,0.2,0.1,0.2
		c0.2,0.2,0.2,0.4,0,0.6c-0.1,0.1-0.1,0.1-0.2,0.2c-0.4,0.9-1.1,1.4-2,1.6C27.4,31.9,27,32,26.4,31.9z"/>
	<path fill="#E00076" d="M14.3,24.1c-0.6,0-1.1,0-1.6,0.2c-0.8,0.3-1.5,1-1.6,1.9c-0.1,0.8,0.2,1.3,1.1,1.3c0.4,0,0.8-0.1,1.1-0.2
		c0.5-0.1,1,0,1.5,0.1c0.1,0,0.1,0,0.2,0.1c0.1,0.1,0.3,0.1,0.3,0.3c0,0.1-0.2,0.1-0.3,0.2c-0.9,0.3-1.7,0.5-2.6,0.8
		c-0.6,0.2-0.8,0.6-0.6,1.2c0.1,0.2,0.1,0.5,0.1,0.7c-0.1,0.4-0.2,0.5-0.6,0.5c-0.7,0.1-1-0.2-1-0.9c-0.1-1.1-0.4-2.2-0.6-3.3
		c-0.1-0.9,0.1-1.8,0.9-2.5c0.1-0.1,0.2-0.2,0.3-0.4c0.1-0.2,0.2-0.4,0.4-0.5c0.2-0.1,0.3-0.1,0.5,0c0.2,0.2,0.5,0.1,0.7,0
		c0.1-0.1,0.2-0.1,0.3,0c0.2,0.2,0.4,0.2,0.5,0.1c0.2-0.1,0.3-0.1,0.4,0C13.9,23.9,14.1,24,14.3,24.1z"/>
	<path fill="#E00076" d="M12.8,16.7c0.1-0.9-0.1-2.2-0.1-3.5c0-1.2,0.2-2.4,0.2-3.6c0-0.2,0.1-0.4,0.2-0.6c0.1-0.2,0.2-0.2,0.3,0
		c0.1,0.1,0.1,0.2,0.1,0.3c0,0.1,0,0.2,0.1,0.2c0.6,0.3,0.6,0.9,0.6,1.5c0,0.6,0.3,1.1,0.4,1.7c0,0.3,0.1,0.6,0.1,0.9
		c0,0.1,0,0.3,0,0.3c-0.2,0.2-0.2,0.4-0.1,0.6c0,0.1,0,0.2,0,0.3c-0.1,0.2-0.1,0.3,0,0.5c0.1,0.1,0,0.2-0.1,0.3
		c-0.3,0.2-0.3,0.6,0,0.8c0.1,0.1,0.1,0.2,0,0.2c-0.4,0.2-0.5,0.6-0.4,1c0,0.4,0,0.7-0.3,1c-0.3,0.3-0.3,0.7-0.3,1
		c0,0.2-0.1,0.5-0.2,0.7c0,0.1-0.1,0.2-0.2,0.2c-0.1,0-0.2-0.1-0.3-0.2c-0.1-0.2-0.1-0.4-0.1-0.7C12.8,18.8,12.8,17.9,12.8,16.7z"/>
	<path fill="#E00076" d="M36.5,31.1c-0.3-0.3-0.4-0.7-0.5-1.1c-0.3-0.8-0.7-1.4-1.4-1.9c-0.3-0.2-0.8-0.3-1.1-0.4
		c-0.4-0.1-0.6,0.2-0.7,0.5c-0.4,0.5-0.5,1.2-0.6,1.8c0,0.4-0.1,0.7-0.2,1.1c0,0.2-0.1,0.3-0.3,0.4c-0.2,0.1-0.3,0-0.5-0.2
		c-0.3-0.3-0.4-0.7-0.1-1.1c0.1-0.1,0.1-0.2,0.1-0.3c0-0.5,0-1,0.2-1.5c0.2-0.6,0.3-1.2,0.7-1.6c0.3-0.3,0.6-0.5,1-0.5
		c0.2,0,0.5-0.1,0.7-0.2c0.5-0.1,0.9,0.1,1.1,0.5c0.1,0.3,0.4,0.6,0.6,0.8c0.3,0.4,0.6,0.7,0.9,1.1c0.1,0.1,0.2,0.3,0.2,0.4
		c0.1,0.6,0.1,1.3,0.1,2C36.6,31,36.5,31.1,36.5,31.1z"/>
	<path fill="#E00076" d="M13.8,4.1c0.7,0,0.9,0.3,1,1c0.1,0.6-0.1,1.2-0.5,1.7c-0.3,0.4-1,0.6-1.4,0.4c-0.4-0.2-0.7-0.5-1-0.9
		c-0.1-0.2-0.1-0.4,0-0.5c0.1-0.1,0.1-0.2,0-0.4c-0.1-0.2-0.1-0.3,0.1-0.3c0.2,0,0.3-0.1,0.2-0.3c-0.1-0.2,0-0.2,0.1-0.3
		C12.8,4.2,13.4,4.2,13.8,4.1z"/>
	<path fill="#E00076" d="M61.8,3.6c0,0.4-0.1,0.8-0.2,1.2c0,0.4-0.4,0.5-0.7,0.7c-0.7,0.4-1.6,0-1.9-0.7c0-0.1-0.1-0.1-0.1-0.2
		c-0.1-0.7,0.5-1.5,1.2-1.8c0.3-0.1,0.7-0.2,1-0.1C61.6,2.8,61.8,3,61.8,3.6z"/>
	<path fill="#E00076" d="M63.2,23.9c-0.5,0.2-0.9,0.1-1.3-0.1c-0.4-0.2-0.4-0.9-0.1-1.3c0.2-0.2,0.4-0.4,0.7-0.5
		c0.8-0.2,1.1,0.3,1.2,0.9c0,0.1-0.1,0.2-0.1,0.2c-0.2,0.1-0.4,0.2-0.5,0.3c-0.1,0.1-0.2,0.1-0.2,0.2c0,0.1,0.1,0.2,0.2,0.2
		C63.1,23.8,63.2,23.9,63.2,23.9z"/>
</g>
</svg>
