<?xml version="1.0" encoding="utf-8"?>
<!-- Generator: Adobe Illustrator 15.0.0, SVG Export Plug-In  -->
<!DOCTYPE svg PUBLIC "-//W3C//DTD SVG 1.1//EN" "http://www.w3.org/Graphics/SVG/1.1/DTD/svg11.dtd" [
	<!ENTITY ns_flows "http://ns.adobe.com/Flows/1.0/">
]>
<svg version="1.1"
	 xmlns="http://www.w3.org/2000/svg" xmlns:xlink="http://www.w3.org/1999/xlink" xmlns:a="http://ns.adobe.com/AdobeSVGViewerExtensions/3.0/"
	 x="0px" y="0px" width="20px" height="20px" viewBox="-4.002 -1.997 20 20"
	 overflow="visible" enable-background="new -4.002 -1.997 20 20" xml:space="preserve">
<defs>
</defs>
<path fill="#FFFFFF" d="M4.93,10.586c-0.404,2.205-0.899,4.318-2.364,5.42c-0.452-3.33,0.664-5.83,1.182-8.486
	C2.865,5.975,3.854,2.868,5.719,3.634c2.294,0.942-1.986,5.741,0.888,6.339c3,0.627,4.225-5.401,2.365-7.361
	C6.284-0.22,1.146,2.546,1.778,6.599c0.153,0.99,1.14,1.291,0.394,2.657c-1.72-0.394-2.233-1.803-2.167-3.68
	c0.106-3.073,2.66-5.224,5.221-5.522c3.241-0.377,6.281,1.234,6.699,4.397C12.398,8.022,10.465,11.887,7,11.61
	C6.061,11.536,5.667,11.051,4.93,10.586z"/>
</svg>
