<?xml version="1.0" encoding="utf-8"?>
<!-- Generator: Adobe Illustrator 17.1.0, SVG Export Plug-In . SVG Version: 6.00 Build 0)  -->
<!DOCTYPE svg PUBLIC "-//W3C//DTD SVG 1.1//EN" "http://www.w3.org/Graphics/SVG/1.1/DTD/svg11.dtd">
<svg version="1.1" id="Layer_1" xmlns="http://www.w3.org/2000/svg" xmlns:xlink="http://www.w3.org/1999/xlink" x="0px" y="0px"
	 viewBox="0 0 110 36" enable-background="new 0 0 110 36" xml:space="preserve">
<g>
	<g>
		<path fill="#FFFFFF" d="M109,21.9c-1.8-3.1-4.3-5.5-7.6-7.1c-5.1-2.6-10.5-2.7-16-1.8c-5,0.8-9.7,2.5-14.4,4.3
			c-5.8,2.2-11.6,4.6-17.4,6.6c-5.8,2-11.8,2.9-17.9,3c-3.9,0.1-7.8-0.1-11.5-1c-2.7-0.6-5.5-1.4-8.1-2.3c-4.4-1.5-8.5-3.5-11.7-7
			C2.9,15,1.8,13,2,10.7c0.3-3,1.8-5.4,4.6-6.8c3.9-1.9,8-2.6,12.3-2.3c3.2,0.2,6.2,0.9,9.2,2.1c4.5,1.7,8.6,4.3,12.4,7.3
			c0.2,0.2,0.5,0.2,0.8,0.3c0-0.1,0.1-0.2,0.1-0.3c-0.2-0.2-0.3-0.4-0.5-0.5C37.8,8,34.6,5.8,31.1,4c-3.6-1.9-7.3-3.2-11.4-3.6
			c-3.1-0.3-6.3-0.6-9.4-0.1C7,0.8,4.1,1.9,2,4.7c-2.3,3-2.8,6.4-0.7,9.6c1,1.6,2.4,3.1,3.9,4.2c4.8,3.8,10.2,6.3,16,8
			c3.7,1.1,7.5,1.7,11.3,1.7c2.2,0,4.5,0,6.7-0.2c3.1-0.3,6.2-0.7,9.2-1.5c4-1.1,8-2.6,11.9-4c6.8-2.6,13.5-5.2,20.6-6.9
			c2.3-0.5,4.5-1,6.9-1.2c2.9-0.3,5.8,0.1,8.6,1.1c3.3,1.2,6.4,2.9,8.5,5.8c3.4,4.5,1.3,10.3-3.7,11.7c-2.7,0.8-5.4,1-8.2,0.7
			c-3.7-0.3-7.3-1-10.9-2c-0.2-0.1-0.5-0.1-0.7-0.1c0,0.1,0,0.1,0,0.2c0.1,0,0.1,0.1,0.2,0.1c0.1,0.1,0.3,0.2,0.4,0.2
			c5.2,2,10.5,3.6,16.2,3c3.6-0.4,6.9-1.4,9.5-4.1C110.1,28.6,110.7,24.8,109,21.9z M27,25.5c0.2-0.3,0.4-0.6,0.6-0.9
			c0.4,0.9,1.2,1.1,2.4,0.7c0.3-0.1,0.8-0.1,1.1,0.1c0.8,0.7,1.7,0.8,2.7,0.5c0.3-0.1,0.6-0.1,0.9,0.1c1.5,0.9,2.9,0.1,3-1.7
			c0-0.4,0.2-0.8,0.4-1.3c0.4-1,0.8-2,1.2-3c-0.1,0-0.2-0.1-0.4-0.1c-0.8,1-0.3,2.6-1.5,3.3c-0.5-0.5-1.1-1.1-1.8-0.4
			c-0.4,0.4-0.7,0.9-0.9,1.4c-0.6,1.5-2.1,1.8-3.2,0.5c0.9-0.7,1.8-1.3,2.6-2c1.6-1.4,2.6-3.2,2.6-5.4c0-0.8-0.3-1.4-1.1-1.8
			c-0.8-0.3-1.2,0.1-1.7,0.6c-0.2,0.2-0.3,0.3-0.4,0.5c-1.1,2.1-2.1,4.1-3.1,6c-0.2-0.1-0.7-0.3-1.1-0.2c-0.5,0.1-0.8,0.6-1.1,0.8
			c-0.2-0.4-0.4-1-0.6-1c-0.7-0.1-1.4,0.1-2.1,0.1c0.3-1.5,0-1.8-1.5-1.6c-0.3-0.4-0.6-0.8-0.8-1.1c0.5-0.1,1-0.2,1.5-0.3
			c4.2-0.9,6-5.5,3.5-8.9c-1.4-1.9-3.6-1.9-5,0.1c-0.8,1.2-1.4,2.5-2.1,3.8c-0.5,1-1,2-1.7,3.2c-0.5-0.6-0.8-1.1-1.2-1.6
			C18.1,15.9,18,16,17.9,16c0.2,0.5,0.3,1,0.5,1.5c0.1,0.2,0.2,0.6,0.1,0.7c-1.1,1-1.5,2.9-3.7,2.4c0.1,0.4,0.2,1,0.5,1
			c0.4,0.1,1,0,1.3-0.2c1-0.9,1.8-1.9,2.7-2.9c0.8,0.3,1.5,0.7,2.3,1c-0.4,0.2-0.9,0.4-1.3,0.7c-0.7,0.5-1.4,1-1.8,1.7
			c-0.7,1,0,2.2,1.2,2c1.5-0.2,2.9-0.8,4.4-1.3c-0.2-0.3-0.4-0.5-0.6-0.7c0.4-0.2,0.8-0.4,1.3-0.7c0.2,1-0.3,1.5-0.8,1.9
			c-0.4,0.3-0.8,0.6-1.1,1c-0.2,0.3-0.1,0.7-0.1,1.1c0.4-0.1,0.8,0,1.1-0.2c0.3-0.2,0.4-0.6,0.5-1c0.2-0.8,0.8-1.1,1.6-1.3
			c-0.4,0.8-0.8,1.5-1.1,2.2c0.1,0.1,0.2,0.1,0.3,0.2c0.6-0.8,1.2-1.6,1.8-2.4c0.1,0.1,0.2,0.1,0.3,0.2c-0.1,0.8-0.3,1.7-0.4,2.5
			C26.9,25.4,27,25.5,27,25.5z M35.4,23.9c0.5,0.1,1,0.2,1.5,0.3c0.1,0.6,0.1,1.4-0.7,1.8c-0.2,0.1-0.8,0-1-0.2
			C34.9,25.1,35,24.4,35.4,23.9z M33,18.1c0.4-0.7,0.9-1.2,1.5-1.8c0.4-0.4,0.9-0.4,1,0.3c0.1,0.7,0.1,1.4,0,2
			c-0.6,2.4-2.1,4-4.3,5.5C31,21.7,32,19.9,33,18.1z M30.5,23.7c0,0.3,0.1,0.8-0.1,0.9c-0.5,0.4-1.2,0.7-1.8,0.2
			C29.2,24.5,29.8,24.2,30.5,23.7z M29.8,22.8c0,0.9-0.2,1.1-1.5,1.5C28.6,23.5,28.8,22.7,29.8,22.8z M20.1,18.1
			c-0.1-0.1-0.3-0.2-0.4-0.3c1.2-2,2.3-4,3.5-5.9c0.9-1.4,2-1.9,3.1-1.4c1.1,0.4,2,1.8,1.7,3.2c-0.5,2.3-1.7,4.1-3.9,5.1
			C22.6,19.5,21.3,18.9,20.1,18.1z M19,22.9c-0.3-0.6,0.2-1.3,1.2-1.8c0.3,0.7,0.7,1.3,1,1.9C20.2,23.6,19.3,23.6,19,22.9z M22,22.5
			c-0.5-0.5-0.9-0.8-1-1.1c-0.2-0.5,0.7-1.2,1.3-1.2c0.3,0,0.9,0.6,0.8,0.7C22.9,21.4,22.5,21.9,22,22.5z M43.6,15.9
			c-0.4,0.9,0.4,1.1,0.8,1.4c1.4,0.9,3.8,0.8,5.2-0.3c0.8-0.6,0.7-0.8-0.1-1.3c-1.6-0.9-3.3-1-5.1-0.2c0-0.2,0-0.3,0-0.3
			c0.2-0.2,0.3-0.5,0.5-0.7c1.8-2.2,2.3-4.7,1.7-7.5c-0.1-0.6-0.5-1.2-0.8-1.8c-0.6,0.4-1.4,0.8-1.8,1.3c-2.4,3-2.3,6.1-0.4,9.3
			C43.6,15.8,43.6,15.9,43.6,15.9z M12.5,16.3c-0.8-0.3-1.1,0.3-1.3,0.9c-0.2,0.7,0.2,1.2,0.9,1.5c0.6,0.2,2.1-0.4,2.6-1
			c0.6-0.8,0.1-1.3-0.4-1.8c-0.1-0.1-0.1-0.2-0.2-0.3c-0.5-0.5-0.2-0.7,0.3-0.9c0.6-0.3,1.2-0.6,1.8-0.9c0-0.1-0.1-0.3-0.1-0.4
			c-0.3,0-0.6-0.1-0.8,0.1c-0.5,0.2-0.9,0.6-1.4,0.9c-1.2,0.6-2.4,1.2-3.7,1.6C9,16,8.6,15.3,9,14.3c0.5-1.1,1.4-1.8,2.4-2.5
			c1.6-1.1,3.1-2.4,4.6-3.6c0.2-0.2,0.3-0.6,0.5-0.9C16.5,7.1,16.4,7,16.3,7c-0.4,0.1-0.9,0.2-1.3,0.4c-2,0.9-3.2,2.7-4.7,4.2
			c-0.8,0.8-1.6,1.5-2.8,1.6c-0.3-1.1,0.5-1.6,1.2-2.2c1.9-1.7,3.8-3.4,5.6-5.1c0.3-0.2,0.4-0.6,0.6-0.9c-0.1-0.1-0.2-0.2-0.2-0.3
			c-0.4,0.2-0.9,0.3-1.2,0.6C12,6.7,10.6,8.1,9.3,9.5C7.9,11,6.2,12,4.2,12.6c-0.6,0.2-1.4-0.4-1.2-0.9c0.3-0.5,0.7-1,1.2-1.3
			c0.6-0.3,0.7,0.4,1,0.7c0,0,0.1,0,0.3,0c0.2-0.6,0.2-1-0.4-1.4c-0.7-0.4-1.3-0.1-1.7,0.4c-0.4,0.5-0.9,1.3-0.9,1.9
			c0.2,1.7,1.3,2.1,2.8,1.2c0.5-0.3,1.1-0.7,1.6-1c0,0.5-0.1,0.9-0.1,1.3c0.6,0.1,1.3,0.1,1.9,0.2c-0.1,0.2-0.3,0.5-0.3,0.8
			c0,0.5-0.1,1.1,0.2,1.4c0.3,0.3,0.9,0.5,1.4,0.4c0.8-0.2,1.5-0.7,2.2-0.8c0.5-0.1,1.1,0.1,1.6,0.3c0.3,0.1,0.5,0.9,0.4,1
			c-0.3,0.4-0.8,0.8-1.3,0.9c-0.4,0.1-0.8-0.3-1.3-0.5c0.3-0.3,0.6-0.6,0.9-0.9C12.5,16.5,12.5,16.4,12.5,16.3z M70.7,23.3
			c-0.4,0-0.8,0-1.1,0c-0.4,0-0.8-0.1-1.2-0.1c-0.2,0.2-0.4,0.3-0.6,0.5c0-0.4-0.1-0.9-0.2-1.4c-0.3,0.3-0.6,0.5-0.9,0.8
			c-2.1,2.2-4.7,3.6-7.9,3.4c0.7,0.9,1.1,1.1,4.2,1.3c-0.1-0.1-0.3-0.3-0.4-0.4c0.6,0.1,1.1,0.2,1.7,0.3c0-0.1,0-0.1,0.1-0.2
			c-0.3-0.2-0.7-0.4-1-0.6c0.4,0,0.8,0.2,1.1,0.3c0.3,0.1,0.7,0.1,1.1,0.2c0-0.1,0-0.1,0-0.2c-0.5-0.3-1-0.6-1.5-0.9
			c2.1,0.6,2.1,0.6,3.3,0.3c-0.9-0.3-1.6-0.5-2.3-0.8c2.2,0.5,2.3,0.5,3.2,0c-0.4-0.1-0.8-0.1-1.1-0.2c-0.3-0.1-0.6-0.3-1.1-0.5
			c1.3,0,2.3,0,3.4,0c0-0.1,0-0.1,0-0.2c-0.7-0.1-1.3-0.2-2-0.3c0,0,0-0.1,0-0.1c0.8,0,1.5,0,2.3,0c0-0.1,0-0.1,0-0.1
			c-0.1-0.1-0.3-0.1-0.5-0.2c0.5-0.2,0.9-0.4,1.4-0.6C70.8,23.5,70.7,23.4,70.7,23.3z M56,33.5c-0.8,0-1.5,0.2-2.2,0.3
			c0,0.1,0,0.2,0,0.2c-0.2-0.2-0.5-0.5-0.7-0.6c-0.7,0.4-1.3,0.8-1.9,1.3c0.4,0.3,0.9,0.6,1.4,0.9c1.4,1,3.5,0.2,3.9-1.4
			C56.3,34,56.1,33.5,56,33.5z"/>
	</g>
</g>
</svg>
