<?xml version="1.0" encoding="utf-8"?>
<!-- Generator: Adobe Illustrator 19.2.0, SVG Export Plug-In . SVG Version: 6.00 Build 0)  -->
<svg version="1.1" id="Layer_1" xmlns="http://www.w3.org/2000/svg" xmlns:xlink="http://www.w3.org/1999/xlink" x="0px" y="0px"
	 viewBox="0 0 40 40" style="enable-background:new 0 0 40 40;" xml:space="preserve">
<style type="text/css">
	.st0{fill:#FFFFFF;}
</style>
<path class="st0" d="M29.5,28.2l-5.3-5.3c1-1.3,1.7-3,1.7-4.7c0-4.2-3.4-7.7-7.7-7.7c-4.2,0-7.7,3.4-7.7,7.7c0,4.2,3.4,7.7,7.7,7.7
	c1.7,0,3.3-0.6,4.6-1.5l5.4,5.4L29.5,28.2z M12.5,18.1c0-3.1,2.5-5.7,5.7-5.7c3.1,0,5.7,2.5,5.7,5.7s-2.5,5.7-5.7,5.7
	C15,23.8,12.5,21.2,12.5,18.1z"/>
</svg>
