<?xml version="1.0" encoding="utf-8"?>
<!-- Generator: Adobe Illustrator 15.0.0, SVG Export Plug-In . SVG Version: 6.00 Build 0)  -->
<!DOCTYPE svg PUBLIC "-//W3C//DTD SVG 1.1//EN" "http://www.w3.org/Graphics/SVG/1.1/DTD/svg11.dtd">
<svg version="1.1" id="Layer_1" xmlns="http://www.w3.org/2000/svg" xmlns:xlink="http://www.w3.org/1999/xlink" x="0px" y="0px"
	 width="20px" height="20px" viewBox="0 0 20 20" enable-background="new 0 0 20 20" xml:space="preserve">
<path d="M18.024,5.575c-0.581,0.249-1.159,0.416-1.74,0.498c0.667-0.416,1.08-0.995,1.328-1.657
	c-0.582,0.331-1.244,0.579-1.905,0.744c-0.583-0.58-1.329-0.993-2.239-0.993c-1.657,0-3.067,1.326-3.067,3.064
	c0,0.249,0,0.498,0.082,0.664C7.916,7.73,5.677,6.57,4.187,4.747C3.935,5.16,3.771,5.742,3.771,6.237c0,1.08,0.497,1.99,1.326,2.57
	c-0.498,0-0.995-0.165-1.408-0.413l0,0c0,1.49,1.077,2.734,2.485,2.983c-0.249,0.084-0.498,0.084-0.829,0.084
	c-0.167,0-0.416,0-0.58-0.084c0.413,1.244,1.49,2.069,2.816,2.154c-1.077,0.831-2.318,1.328-3.811,1.328
	c-0.25,0-0.498,0-0.747-0.085c1.326,0.831,2.982,1.408,4.642,1.408c5.637,0,8.702-4.642,8.702-8.702c0-0.164,0-0.249,0-0.413
	C17.114,6.735,17.612,6.155,18.024,5.575z"/>
</svg>
