<?xml version="1.0" encoding="utf-8"?>
<!-- Generator: Adobe Illustrator 15.0.0, SVG Export Plug-In . SVG Version: 6.00 Build 0)  -->
<!DOCTYPE svg PUBLIC "-//W3C//DTD SVG 1.1//EN" "http://www.w3.org/Graphics/SVG/1.1/DTD/svg11.dtd">
<svg version="1.1" id="Layer_1" xmlns="http://www.w3.org/2000/svg" xmlns:xlink="http://www.w3.org/1999/xlink" x="0px" y="0px"
	 width="20px" height="20px" viewBox="0 0 20 20" enable-background="new 0 0 20 20" xml:space="preserve">
<path d="M17.172,10.002c0.009,1.236-0.324,2.453-0.963,3.514c-0.631,1.063-1.531,1.941-2.609,2.547
	c-1.096,0.627-2.338,0.95-3.6,0.939c-0.689,0-1.375-0.098-2.036-0.291c0.315-0.461,0.562-0.967,0.728-1.5
	c0.057-0.206,0.223-0.848,0.5-1.922c0.16,0.27,0.397,0.482,0.682,0.615c0.328,0.172,0.693,0.262,1.064,0.26
	c0.723,0.01,1.428-0.209,2.018-0.625c0.607-0.436,1.082-1.03,1.373-1.719c0.334-0.777,0.498-1.616,0.485-2.461
	c0.001-0.689-0.19-1.365-0.556-1.95c-0.395-0.632-0.951-1.144-1.611-1.486c-0.732-0.39-1.551-0.587-2.381-0.573
	c-0.62-0.006-1.236,0.084-1.83,0.264C7.449,5.896,6.584,6.498,5.975,7.322C5.703,7.679,5.492,8.078,5.349,8.503
	c-0.131,0.394-0.199,0.806-0.2,1.222c-0.012,0.577,0.116,1.15,0.374,1.668c0.228,0.461,0.618,0.823,1.097,1.016
	c0.108,0.066,0.252,0.033,0.32-0.076c0.02-0.031,0.032-0.068,0.034-0.105c0.013-0.043,0.037-0.138,0.075-0.283
	c0.037-0.146,0.062-0.236,0.074-0.273c0.039-0.141,0-0.288-0.1-0.393c-0.322-0.385-0.492-0.875-0.476-1.375
	c-0.013-0.89,0.341-1.743,0.976-2.365c0.678-0.67,1.604-1.029,2.555-0.989c0.803-0.048,1.592,0.22,2.199,0.748
	c0.529,0.504,0.816,1.211,0.789,1.94c0.028,0.92-0.193,1.832-0.64,2.635c-0.3,0.641-0.933,1.061-1.64,1.084
	c-0.35,0.013-0.687-0.137-0.916-0.4c-0.229-0.26-0.311-0.619-0.215-0.951c0.051-0.213,0.133-0.496,0.248-0.854
	c0.115-0.355,0.209-0.669,0.28-0.939c0.063-0.224,0.101-0.455,0.106-0.688c0.011-0.273-0.078-0.543-0.252-0.756
	C9.859,8.161,9.594,8.05,9.32,8.066c-0.392,0.002-0.758,0.196-0.979,0.52C8.064,8.96,7.924,9.416,7.94,9.88
	c-0.013,0.384,0.067,0.767,0.233,1.113l-0.93,3.81c-0.114,0.53-0.155,1.072-0.121,1.613c-1.262-0.536-2.342-1.425-3.11-2.562
	C2.517,11.648,2.43,8.777,3.789,6.484C4.42,5.422,5.32,4.544,6.398,3.938c2.237-1.252,4.965-1.252,7.2,0
	c1.078,0.605,1.979,1.484,2.608,2.547C16.848,7.546,17.182,8.763,17.172,10.002z"/>
</svg>
